<svg xmlns="http://www.w3.org/2000/svg" xmlns:xlink="http://www.w3.org/1999/xlink" class="ct-chart" width="1200" height="150" viewBox="0 0 1200 150">
<style type="text/css">
        <![CDATA[
        .ct-chart .ct-grid {
            stroke: rgba(0,0,0,.2);
            stroke-width: 1px;
            stroke-dasharray: 2px;
        }

        .ct-label {
            fill: rgba(0, 0, 0, 0.4);
            color: rgba(0, 0, 0, 0.4);
            font-size: 12px;
            font-family: sans-serif;
            text-anchor: end;
        }

        .ct-chart .ct-series.ct-series-a .ct-line, .ct-chart .ct-series.ct-series-a .ct-point {
            stroke: #c00;
        }

        .ct-chart .ct-series.ct-series-b .ct-line, .ct-chart .ct-series.ct-series-b .ct-point {
            stroke: #1c2298;
        }

        .ct-chart .ct-series.ct-series-c .ct-line, .ct-chart .ct-series.ct-series-c .ct-point {
            stroke: #0aad0a;
        }

        .ct-chart .ct-series.ct-series-d .ct-line, .ct-chart .ct-series.ct-series-d .ct-point {
            stroke: #FF6A00;
        }

        .ct-chart .ct-line {
            fill: none;
            stroke-width: 2px;
        }

        .ct-chart .ct-point {
            stroke-width: 6px;
            stroke-linecap: round;
            transition: stroke-width .2s;
        }
        ]]>
</style>
<title>Coverage history</title>
<defs>
</defs>
<g>
    <line x1="50" x2="50" y1="15" y2="115" class="ct-grid"></line>
    <line x1="1190" x2="1190" y1="15" y2="115" class="ct-grid"></line>
    <line y1="115" y2="115" x1="50" x2="1190" class="ct-grid"></line>
    <line y1="90" y2="90" x1="50" x2="1190" class="ct-grid"></line>
    <line y1="65" y2="65" x1="50" x2="1190" class="ct-grid"></line>
    <line y1="40" y2="40" x1="50" x2="1190" class="ct-grid"></line>
    <line y1="15" y2="15" x1="50" x2="1190" class="ct-grid"></line>
</g>
    
<g>
    <text x="45" y="113" class="ct-label">0</text>
    <text x="45" y="88" class="ct-label">25</text>
    <text x="45" y="63" class="ct-label">50</text>
    <text x="45" y="38" class="ct-label">75</text>
    <text x="45" y="13" class="ct-label">100</text>
</g><g class="ct-series ct-series-a">
<path d="M50.000,61.400L192.500,59.000L335.000,57.400L477.500,56.600L620.000,59.000L762.500,57.400L905.000,56.600L1047.500,56.600L1190.000,45.600" class="ct-line"></path>
<line x1="50.000" y1="61.400" x2="50.010" y2="61.400" class="ct-point"></line><line x1="192.500" y1="59.000" x2="192.510" y2="59.000" class="ct-point"></line><line x1="335.000" y1="57.400" x2="335.010" y2="57.400" class="ct-point"></line><line x1="477.500" y1="56.600" x2="477.510" y2="56.600" class="ct-point"></line><line x1="620.000" y1="59.000" x2="620.010" y2="59.000" class="ct-point"></line><line x1="762.500" y1="57.400" x2="762.510" y2="57.400" class="ct-point"></line><line x1="905.000" y1="56.600" x2="905.010" y2="56.600" class="ct-point"></line><line x1="1047.500" y1="56.600" x2="1047.510" y2="56.600" class="ct-point"></line><line x1="1190.000" y1="45.600" x2="1190.010" y2="45.600" class="ct-point"></line></g>
<g class="ct-series ct-series-b">
<path d="M50.000,65.000L192.500,71.700L335.000,68.400L477.500,66.700L620.000,65.000L762.500,65.000L905.000,65.000L1047.500,70.000L1190.000,65.000" class="ct-line"></path>
<line x1="50.000" y1="65.000" x2="50.010" y2="65.000" class="ct-point"></line><line x1="192.500" y1="71.700" x2="192.510" y2="71.700" class="ct-point"></line><line x1="335.000" y1="68.400" x2="335.010" y2="68.400" class="ct-point"></line><line x1="477.500" y1="66.700" x2="477.510" y2="66.700" class="ct-point"></line><line x1="620.000" y1="65.000" x2="620.010" y2="65.000" class="ct-point"></line><line x1="762.500" y1="65.000" x2="762.510" y2="65.000" class="ct-point"></line><line x1="905.000" y1="65.000" x2="905.010" y2="65.000" class="ct-point"></line><line x1="1047.500" y1="70.000" x2="1047.510" y2="70.000" class="ct-point"></line><line x1="1190.000" y1="65.000" x2="1190.010" y2="65.000" class="ct-point"></line></g>
<g class="ct-series ct-series-c">
<path d="M50.000,56.700L192.500,69.200L335.000,65.000L477.500,60.900L620.000,60.900L762.500,52.500L905.000,48.400L1047.500,48.400L1190.000,48.400" class="ct-line"></path>
<line x1="50.000" y1="56.700" x2="50.010" y2="56.700" class="ct-point"></line><line x1="192.500" y1="69.200" x2="192.510" y2="69.200" class="ct-point"></line><line x1="335.000" y1="65.000" x2="335.010" y2="65.000" class="ct-point"></line><line x1="477.500" y1="60.900" x2="477.510" y2="60.900" class="ct-point"></line><line x1="620.000" y1="60.900" x2="620.010" y2="60.900" class="ct-point"></line><line x1="762.500" y1="52.500" x2="762.510" y2="52.500" class="ct-point"></line><line x1="905.000" y1="48.400" x2="905.010" y2="48.400" class="ct-point"></line><line x1="1047.500" y1="48.400" x2="1047.510" y2="48.400" class="ct-point"></line><line x1="1190.000" y1="48.400" x2="1190.010" y2="48.400" class="ct-point"></line></g>
<g class="ct-series ct-series-d">
<path d="M50.000,90.000L192.500,90.000L335.000,85.900L477.500,81.700L620.000,81.700L762.500,77.500L905.000,77.500L1047.500,77.500L1190.000,77.500" class="ct-line"></path>
<line x1="50.000" y1="90.000" x2="50.010" y2="90.000" class="ct-point"></line><line x1="192.500" y1="90.000" x2="192.510" y2="90.000" class="ct-point"></line><line x1="335.000" y1="85.900" x2="335.010" y2="85.900" class="ct-point"></line><line x1="477.500" y1="81.700" x2="477.510" y2="81.700" class="ct-point"></line><line x1="620.000" y1="81.700" x2="620.010" y2="81.700" class="ct-point"></line><line x1="762.500" y1="77.500" x2="762.510" y2="77.500" class="ct-point"></line><line x1="905.000" y1="77.500" x2="905.010" y2="77.500" class="ct-point"></line><line x1="1047.500" y1="77.500" x2="1047.510" y2="77.500" class="ct-point"></line><line x1="1190.000" y1="77.500" x2="1190.010" y2="77.500" class="ct-point"></line></g>
</svg>
