<?xml version="1.0" encoding="UTF-8" standalone="no"?>
<svg xmlns="http://www.w3.org/2000/svg" xmlns:xlink="http://www.w3.org/1999/xlink" width="512" height="512" viewBox="0 0 135.47 135.47">
  <defs>
    <linearGradient id="c">
      <stop offset="0" stop-color="#d40000"/>
      <stop offset="1" stop-color="#ff2a2a"/>
    </linearGradient>
    <linearGradient id="a">
      <stop offset="0" stop-color="#e0e0de"/>
      <stop offset="1" stop-color="#fff"/>
    </linearGradient>
    <linearGradient id="b">
      <stop offset="0" stop-color="#37c837"/>
      <stop offset="1" stop-color="#217821"/>
    </linearGradient>
    <linearGradient xlink:href="#a" id="e" x1="106.44" x2="69.96" y1="-11.96" y2="-46.84" gradientTransform="matrix(-.8426 -.00045 -.00045 -.8426 -28.32 18.1)" gradientUnits="userSpaceOnUse"/>
    <linearGradient xlink:href="#b" id="g" x1="56.19" x2="77.97" y1="-23.45" y2="10.62" gradientTransform="matrix(.8426 .00045 .00045 .8426 -3.16 13.28)" gradientUnits="userSpaceOnUse"/>
    <linearGradient xlink:href="#c" id="i" x1="79.98" x2="132.9" y1="10.79" y2="10.79" gradientTransform="matrix(.8426 .00045 .00045 .8426 17.37 2.32)" gradientUnits="userSpaceOnUse"/>
    <filter id="h" width="1.21" height="1.21" x="-.11" y="-.11" color-interpolation-filters="sRGB">
      <feGaussianBlur stdDeviation="2.34"/>
    </filter>
    <filter id="d" width="1.21" height="1.21" x="-.11" y="-.11" color-interpolation-filters="sRGB">
      <feGaussianBlur stdDeviation="2.34"/>
    </filter>
    <filter id="f" width="1.21" height="1.21" x="-.11" y="-.11" color-interpolation-filters="sRGB">
      <feGaussianBlur stdDeviation="2.34"/>
    </filter>
  </defs>
  <g stroke-width=".84">
    <g transform="matrix(1.18743 0 0 1.18617 -38.98 -8.57)">
      <rect width="52.92" height="52.92" x="-122.88" y="-6.08" fill-opacity=".4" filter="url(#d)" rx=".08" ry=".08" transform="rotate(-135 -1.28 -.12)"/>
      <rect width="52.92" height="52.92" x="-120.6" y="-6.77" fill="url(#e)" rx=".08" ry=".08" transform="rotate(-135)"/>
    </g>
    <g transform="matrix(1.18743 0 0 1.18617 13.8 -8.48)">
      <rect width="52.92" height="52.92" x="51.87" y="-28.85" fill="#2b2b2b" fill-opacity=".8" filter="url(#f)" rx=".08" ry=".08" transform="rotate(45 .3 -3.09)"/>
      <rect width="52.92" height="52.92" x="49.59" y="-28.15" fill="url(#g)" rx=".08" ry=".08" transform="rotate(45)"/>
    </g>
    <g transform="matrix(1.18743 0 0 1.18617 -12.63 -16.51)">
      <rect width="52.92" height="52.92" x="82.25" y="-16.37" fill-opacity=".8" filter="url(#h)" rx=".08" ry=".08" style="mix-blend-mode:normal" transform="rotate(45 .3 -3.09)"/>
      <rect width="52.92" height="52.92" x="79.98" y="-15.67" fill="url(#i)" rx=".08" ry=".08" transform="rotate(45)"/>
    </g>
  </g>
</svg>
