<?xml version="1.0" encoding="UTF-8" standalone="no"?>
<svg xmlns="http://www.w3.org/2000/svg" xmlns:xlink="http://www.w3.org/1999/xlink" width="150" height="150">
  <defs>
    <linearGradient id="a">
      <stop offset="0" stop-color="#1c7ed6"/>
      <stop offset="1" stop-color="#23b8cf" stop-opacity="0"/>
    </linearGradient>
    <linearGradient xlink:href="#a" id="b" x1=".24" x2="297.78" y1="84.61" y2="40.16" gradientUnits="userSpaceOnUse"/>
  </defs>
  <rect width="150" height="150" fill="url(#b)" rx="35" ry="35"/>
  <path fill="#2070a9" d="M75 130.67a4.59 4.59 0 0 0 4.58-4.62 4.59 4.59 0 1 0-9.16 0 4.56 4.56 0 0 0 4.58 4.62zm2.22 1.42h-4.44c-3.49 0-6.31 2.65-6.31 5.92 0 .66.56 1.19 1.26 1.19h14.54c.7 0 1.26-.53 1.26-1.19 0-3.27-2.82-5.92-6.31-5.92zm6.31-8.53a3.55 3.55 0 1 0 0-7.11 3.55 3.55 0 0 0 0 7.1zm-14.58 2.49c0-.24.05-.47.07-.71a3.22 3.22 0 0 0-1.58-.36H64.7c-2.16 0-3.9 1.86-3.9 4.15 0 .45.34.83.77.83h8.87a5.99 5.99 0 0 1-1.48-3.91Zm-2.48-2.5a3.55 3.55 0 1 0 0-7.1 3.55 3.55 0 0 0 0 7.1zm18.83 1.43h-2.74c-.57 0-1.1.14-1.6.37.03.23.07.46.07.7 0 1.5-.56 2.85-1.47 3.9h8.87c.44 0 .79-.37.79-.82a4.03 4.03 0 0 0-3.92-4.15z"/>
  <g fill="#fff" stroke-width="1.76">
    <path d="M76.7 37.32A32.9 32.9 0 0 1 108 60.05a32.9 32.9 0 0 1-11.95 36.77 32.9 32.9 0 0 1-38.67 0l19.33-26.6Z"/>
    <path d="M53.96 96.82a32.9 32.9 0 0 1-13.56-26.6A32.9 32.9 0 0 1 53.96 43.6L73.3 70.21ZM55.1 41.33a32.9 32.9 0 0 1 19.33-6.28v32.9Z"/>
  </g>
</svg>
