<?xml version="1.0" encoding="UTF-8"?>
<svg width="150" height="150" version="1.1" viewBox="0 0 150 150" xmlns="http://www.w3.org/2000/svg" xmlns:xlink="http://www.w3.org/1999/xlink">
 <defs>
  <linearGradient id="linearGradient924" x1=".24202" x2="297.78" y1="84.611" y2="40.158" gradientUnits="userSpaceOnUse">
   <stop stop-color="#1c7ed6" offset="0"/>
   <stop stop-color="#23b8cf" stop-opacity="0" offset="1"/>
  </linearGradient>
 </defs>
 <rect width="150" height="150" rx="35" ry="35" fill="url(#linearGradient924)"/>
 <g transform="matrix(.5676 0 0 .5676 34.133 31.048)" fill="#fff" stroke-width="1.7618">
  <path d="m75 11.049a57.951 57.951 0 0 1 55.114 40.043 57.951 57.951 0 0 1-21.052 64.791 57.951 57.951 0 0 1-68.125 0l34.063-46.883z"/>
  <path d="m34.937 115.88a57.951 57.951 0 0 1-23.888-46.883 57.951 57.951 0 0 1 23.888-46.883l34.063 46.883z"/>
  <path d="m36.937 18.117a57.951 57.951 0 0 1 34.063-11.068v57.951z"/>
 </g>
 <path d="m70.731 132.04-1.3277-1.3277c-0.36522-0.36521-0.49412-0.89371-0.33084-1.3835 0.1289-0.3824 0.30076-0.88081 0.507-1.4523h-4.5459c-0.36951 0-0.71324-0.19765-0.898-0.51989-0.18476-0.32226-0.18046-0.71754 0.0086-1.0355l2.2557-3.8025c0.55856-0.94097 1.5683-1.5167 2.6596-1.5167h3.5362c0.10311-0.17186 0.20624-0.33084 0.30936-0.48552 3.519-5.1904 8.7609-5.3622 11.889-4.7865 0.49841 0.0902 0.8851 0.48123 0.97964 0.97964 0.57575 3.1323 0.39958 8.3699-4.7865 11.889-0.15038 0.10307-0.31366 0.20624-0.48552 0.30936v3.5362c0 1.0914-0.57575 2.1054-1.5167 2.6596l-3.8025 2.2557c-0.31795 0.18905-0.71324 0.19335-1.0355 9e-3 -0.32225-0.18476-0.5199-0.5242-0.5199-0.89801v-4.606c-0.60582 0.21054-1.1343 0.3824-1.5339 0.5113-0.48122 0.15468-1.0054 0.0215-1.3663-0.33514zm9.7706-9.3194a1.7187 1.7187 0 1 0 0-3.4373 1.7187 1.7187 0 1 0 0 3.4373z" fill="#3078b0" stroke-width=".042967"/>
</svg>
